<svg width="28" height="28" viewBox="0 0 28 28" fill="none" xmlns="http://www.w3.org/2000/svg">
<g clip-path="url(#clip0_447_14127)">
<path d="M21.6564 11.6503V1.90004C21.6564 0.852323 20.804 0 19.7563 0H4.30726C3.25955 0 2.40723 0.852323 2.40723 1.90004V22.1614C2.40723 23.2091 3.25955 24.0615 4.30726 24.0615H15.9691V27.1238C15.9691 27.793 16.6937 28.2174 17.2782 27.8835L19.9065 26.3816C22.8094 28.0405 22.6576 27.9988 22.9688 27.9988C23.452 27.9988 23.8438 27.6065 23.8438 27.1238V21.1617C26.958 18.1699 25.7245 12.969 21.6564 11.6503ZM4.30726 22.3115C4.26746 22.3115 4.22931 22.2957 4.20117 22.2675C4.17302 22.2394 4.15719 22.2012 4.15715 22.1614V1.90004C4.15719 1.86024 4.17302 1.82208 4.20117 1.79394C4.22931 1.7658 4.26746 1.74997 4.30726 1.74992H19.7564C19.7962 1.74997 19.8343 1.7658 19.8625 1.79394C19.8906 1.82208 19.9064 1.86024 19.9065 1.90004V11.3745C16.7705 11.3745 14.2192 13.9258 14.2192 17.0618C14.2192 18.671 14.8912 20.1262 15.9691 21.1617V22.3115H4.30726ZM22.0939 25.6161L20.3406 24.6142C20.2084 24.5387 20.0587 24.4989 19.9064 24.4989C19.7542 24.4989 19.6045 24.5387 19.4723 24.6142L17.719 25.6161V22.3113C19.1142 22.8948 20.6968 22.8956 22.0938 22.3113L22.0939 25.6161ZM19.9065 20.9991C17.7354 20.9991 15.9691 19.2328 15.9691 17.0618C15.9691 14.8907 17.7354 13.1244 19.9065 13.1244C22.0775 13.1244 23.8438 14.8907 23.8438 17.0618C23.8438 19.2328 22.0775 20.9991 19.9065 20.9991Z" fill="#282828"></path>
<path d="M19.4684 19.3042C19.1266 19.3042 19.083 19.2233 17.6714 18.2821C17.2693 18.0141 17.1606 17.4708 17.4287 17.0688C17.6968 16.6667 18.24 16.5581 18.6421 16.8261L19.2265 17.2157L20.4911 15.3189C20.7591 14.9168 21.3025 14.8082 21.7045 15.0762C22.1066 15.3442 22.2153 15.8875 21.9472 16.2895L20.1973 18.9144C20.0286 19.1673 19.7511 19.3042 19.4684 19.3042ZM15.0944 6.12492H7.65719C7.17399 6.12492 6.78223 5.73316 6.78223 5.24996C6.78223 4.76676 7.17399 4.375 7.65719 4.375H15.0944C15.5776 4.375 15.9693 4.76676 15.9693 5.24996C15.9693 5.73316 15.5776 6.12492 15.0944 6.12492ZM15.0944 9.62477H7.65719C7.17399 9.62477 6.78223 9.23301 6.78223 8.74981C6.78223 8.26661 7.17399 7.87485 7.65719 7.87485H15.0944C15.5776 7.87485 15.9693 8.26661 15.9693 8.74981C15.9693 9.23301 15.5776 9.62477 15.0944 9.62477ZM12.032 13.1246H7.65719C7.17399 13.1246 6.78223 12.7329 6.78223 12.2497C6.78223 11.7665 7.17399 11.3747 7.65719 11.3747H12.032C12.5152 11.3747 12.907 11.7665 12.907 12.2497C12.907 12.7329 12.5152 13.1246 12.032 13.1246Z" fill="#282828"></path>
</g>
<defs>
<clipPath id="clip0_447_14127">
<rect width="28" height="28" fill="white"></rect>
</clipPath>
</defs>
</svg>
