<svg xmlns="http://www.w3.org/2000/svg" xmlns:xlink="http://www.w3.org/1999/xlink" width="512" height="512" x="0" y="0" viewBox="0 0 512 512" style="enable-background:new 0 0 512 512" xml:space="preserve" class=""><g><path d="M497 241h-55v-95c0-8.284-6.716-15-15-15h-45v-25c0-8.284-6.716-15-15-15H121v330h246c8.284 0 15-6.716 15-15v-25h45c8.284 0 15-6.716 15-15v-95h55c8.284 0 15-6.716 15-15s-6.716-15-15-15zm-175.5 90h-140c-8.284 0-15-6.716-15-15s6.716-15 15-15h140c8.284 0 15 6.716 15 15s-6.716 15-15 15zm0-120h-140c-8.284 0-15-6.716-15-15s6.716-15 15-15h140c8.284 0 15 6.716 15 15s-6.716 15-15 15zM45 91c-24.813 0-45 20.187-45 45v240c0 24.813 20.187 45 45 45h46V91H45z" fill="#000000" data-sanitized-data-original="#000000" data-original="#000000" class=""></path></g></svg>