<svg width="24" height="24" viewBox="0 0 24 24" fill="none" xmlns="http://www.w3.org/2000/svg">
<g clip-path="url(#clip0_447_14141)">
<g clip-path="url(#clip1_447_14141)">
<path d="M24 22.8777V1.12207C24 0.823702 23.8815 0.537554 23.6705 0.326575C23.4595 0.115597 23.1734 -0.00292969 22.875 -0.00292969C22.5766 -0.00292969 22.2905 0.115597 22.0795 0.326575C21.8685 0.537554 21.75 0.823702 21.75 1.12207V22.8777C21.75 23.1761 21.8685 23.4622 22.0795 23.6732C22.2905 23.8842 22.5766 24.0027 22.875 24.0027C23.1734 24.0027 23.4595 23.8842 23.6705 23.6732C23.8815 23.4622 24 23.1761 24 22.8777ZM2.25 22.8777V1.12207C2.25 0.823702 2.13147 0.537554 1.9205 0.326575C1.70952 0.115597 1.42337 -0.00292969 1.125 -0.00292969C0.826631 -0.00292969 0.540483 0.115597 0.329505 0.326575C0.118526 0.537554 0 0.823702 0 1.12207L0 22.8777C0 23.1761 0.118526 23.4622 0.329505 23.6732C0.540483 23.8842 0.826631 24.0027 1.125 24.0027C1.42337 24.0027 1.70952 23.8842 1.9205 23.6732C2.13147 23.4622 2.25 23.1761 2.25 22.8777ZM7.6575 13.1249L8.94 14.4074C9.38625 14.8532 9.39703 15.5943 8.94234 16.0316C8.73001 16.2358 8.44604 16.3486 8.15145 16.3457C7.85686 16.3428 7.57516 16.2245 7.36688 16.0161L4.16578 12.8169C4.05832 12.7095 3.97307 12.582 3.91491 12.4417C3.85675 12.3013 3.82681 12.1509 3.82681 11.9989C3.82681 11.847 3.85675 11.6966 3.91491 11.5562C3.97307 11.4159 4.05832 11.2884 4.16578 11.181L7.36688 7.98223C7.57785 7.77126 7.86399 7.65275 8.16234 7.65275C8.4607 7.65275 8.74684 7.77126 8.95781 7.98223C9.06269 8.08674 9.14591 8.21093 9.20269 8.34768C9.25947 8.48443 9.2887 8.63104 9.2887 8.7791C9.2887 8.92717 9.25947 9.07378 9.20269 9.21052C9.14591 9.34727 9.06269 9.47146 8.95781 9.57598L7.6575 10.8749H16.3125L15.03 9.59238C14.5838 9.1466 14.573 8.40598 15.0277 7.96816C15.24 7.76395 15.524 7.65117 15.8186 7.65406C16.1131 7.65695 16.3948 7.77528 16.6031 7.98363L19.8038 11.1824C19.9112 11.2897 19.9964 11.4172 20.0546 11.5575C20.1127 11.6978 20.1427 11.8482 20.1427 12.0001C20.1427 12.152 20.1127 12.3024 20.0546 12.4427C19.9964 12.583 19.9112 12.7105 19.8038 12.8179L16.6031 16.0171C16.3921 16.228 16.106 16.3465 15.8077 16.3465C15.5093 16.3465 15.2232 16.228 15.0122 16.0171C14.9073 15.9126 14.8241 15.7884 14.7673 15.6516C14.7105 15.5149 14.6813 15.3683 14.6813 15.2202C14.6813 15.0721 14.7105 14.9255 14.7673 14.7888C14.8241 14.652 14.9073 14.5278 15.0122 14.4233L16.3125 13.1249H7.6575Z" fill="#282828"></path>
</g>
</g>
<defs>
<clipPath id="clip0_447_14141">
<rect width="24" height="24" fill="white"></rect>
</clipPath>
<clipPath id="clip1_447_14141">
<rect width="24" height="24" fill="white"></rect>
</clipPath>
</defs>
</svg>
