<svg xmlns="http://www.w3.org/2000/svg" xmlns:xlink="http://www.w3.org/1999/xlink" width="512" height="512" x="0" y="0" viewBox="0 0 419.263 419.263" style="enable-background:new 0 0 512 512" xml:space="preserve" class=""><g><path d="M196.4 157.704c21.855 7.307 45.489-4.482 52.794-26.334 7.306-21.854-4.485-45.486-26.336-52.793-21.854-7.309-45.491 4.488-52.794 26.334-7.306 21.853 4.483 45.488 26.336 52.793z" fill="#000000" data-sanitized-data-original="#000000" data-original="#000000" class=""></path><path d="M393.026.001h-29.528a6.6 6.6 0 0 0-6.602 6.602v32.672h-45.4a14.114 14.114 0 0 0-16.044 0H123.795a14.096 14.096 0 0 0-9.16-2.453 14.09 14.09 0 0 0-6.873 2.453h-45.4V6.602A6.6 6.6 0 0 0 55.759 0H26.232a6.6 6.6 0 0 0-6.603 6.602v83.643a6.6 6.6 0 0 0 6.603 6.602h29.527a6.601 6.601 0 0 0 6.603-6.602v-32.67h39.742l5.771 71.127a15.023 15.023 0 0 0 3.303 8.273l1.228 1.523 47.175 58.508c.331.406.691.814 1.062 1.213v89.674L124.33 396.866c-2.661 7.953.898 16.848 8.635 20.648 8.435 4.145 18.63.67 22.774-7.764l57.754-117.49h5.052l36.702 42.313-12.108 63.328c-1.575 8.193 3.079 16.514 11.202 19.295 8.895 3.045 18.57-1.697 21.615-10.588l24.918-72.773c1.882-5.605 1.204-12.102-2.448-17.316l-1.54-2.205-38.266-54.66v-61.432c.363-.391.721-.791 1.062-1.215l47.175-58.508 1.225-1.518a15.07 15.07 0 0 0 3.306-8.279l5.771-71.127h39.742v32.67a6.601 6.601 0 0 0 6.602 6.602h29.528a6.601 6.601 0 0 0 6.603-6.602V6.602a6.607 6.607 0 0 0-6.608-6.601zM275.733 116.995l-18.823 19.238a50.559 50.559 0 0 1-47.27 32.543h-.002a50.582 50.582 0 0 1-16.06-2.621c-12.827-4.291-23.214-13.318-29.249-25.416a52.047 52.047 0 0 1-1.989-4.514l-18.814-19.23-11.953-59.42h156.113l-11.953 59.42z" fill="#000000" data-sanitized-data-original="#000000" data-original="#000000" class=""></path></g></svg>