<svg width="24" height="24" viewBox="0 0 24 24" fill="none" xmlns="http://www.w3.org/2000/svg">
<g clip-path="url(#clip0_104_7218)">
<path d="M8.35924 6.85359H2.3623V7.28192C2.36244 7.39548 2.40762 7.50435 2.48791 7.58464C2.56821 7.66494 2.67708 7.71011 2.79063 7.71025H8.35919L8.35924 6.85359ZM18.6397 1.71341H11.786V3.85515H18.6396V1.71341H18.6397ZM17.6587 2.87422C17.617 2.91197 17.5692 2.94238 17.5173 2.96416C17.4665 2.98816 17.4108 2.99991 17.3546 2.99844C17.2982 2.99897 17.2422 2.98825 17.19 2.96692C17.1378 2.94558 17.0904 2.91405 17.0505 2.87417C17.0106 2.83429 16.9791 2.78686 16.9578 2.73465C16.9364 2.68245 16.9257 2.62651 16.9262 2.57012C16.9268 2.51409 16.9384 2.45873 16.9603 2.40717C16.9821 2.35531 17.0126 2.30756 17.0505 2.26596C17.1107 2.20662 17.1872 2.16641 17.2703 2.15038C17.3533 2.13434 17.4392 2.1432 17.5173 2.17584C17.5704 2.19519 17.6186 2.22592 17.6586 2.26589C17.6985 2.30585 17.7293 2.35407 17.7486 2.40717C17.7706 2.45872 17.7823 2.51408 17.783 2.57012C17.7812 2.68349 17.7369 2.79207 17.6587 2.87422ZM11.786 0H18.6396V0.856705H11.786V0ZM19.9247 5.14018C19.9246 5.02663 19.8794 4.91776 19.7991 4.83746C19.7188 4.75717 19.6099 4.71199 19.4964 4.71185H11.3577C11.2441 4.71199 11.1353 4.75717 11.055 4.83746C10.9747 4.91776 10.9295 5.02663 10.9294 5.14018V5.56851H19.9247V5.14018H19.9247ZM21.2097 6.42527H9.64428C9.53072 6.4254 9.42185 6.47058 9.34155 6.55087C9.26126 6.63117 9.21609 6.74004 9.21595 6.85359V8.68517C9.21604 8.78537 9.25118 8.88237 9.31528 8.95938L11.2584 11.2912C11.3041 11.346 11.3354 11.4114 11.3493 11.4814L12.7205 18.3371C12.7889 18.6784 12.9603 18.9905 13.2117 19.2314C13.463 19.4722 13.7822 19.6301 14.1261 19.6838C14.4701 19.7374 14.8222 19.6843 15.135 19.5315C15.4478 19.3788 15.7062 19.1337 15.8753 18.8294L18.7976 13.5692L18.7994 13.5659L21.5844 8.55298C21.6196 8.48934 21.638 8.4178 21.6381 8.34507V6.85359C21.6379 6.74004 21.5928 6.63118 21.5124 6.55088C21.4321 6.47059 21.3233 6.42542 21.2097 6.42527ZM14.6602 18.7232C14.579 18.8028 14.4699 18.8474 14.3561 18.8474C14.2424 18.8474 14.1332 18.8028 14.052 18.7232C14.0133 18.6822 13.9827 18.6342 13.9619 18.5818C13.94 18.5303 13.9284 18.475 13.9278 18.419C13.9286 18.3055 13.9731 18.1966 14.052 18.1149C14.1348 18.0384 14.2434 17.996 14.3561 17.996C14.4688 17.996 14.5774 18.0384 14.6602 18.1149C14.6774 18.1362 14.6945 18.1576 14.7115 18.1791C14.7277 18.2029 14.7407 18.2288 14.7502 18.256C14.7625 18.2804 14.7712 18.3064 14.7759 18.3332C14.7806 18.3616 14.7835 18.3902 14.7845 18.419C14.7828 18.5324 14.7384 18.641 14.6602 18.7232Z" fill="#282828"></path>
<path d="M18.5255 15.8228C19.6488 17.9762 18.9495 20.6305 16.9111 21.951C14.8727 23.2715 12.1644 22.8245 10.6584 20.9191C9.15239 19.0136 9.34314 16.2753 11.0987 14.5971L10.8109 13.1582C8.14575 15.1081 7.55748 18.8452 9.49469 21.5196C11.4319 24.194 15.1662 24.8 17.8497 22.8755C20.5333 20.951 21.1571 17.2197 19.2454 14.527L18.5255 15.8228Z" fill="#282828"></path>
<path d="M14.3561 21.8461C14.9686 21.8499 15.573 21.7068 16.1188 21.4289C16.6646 21.1509 17.1357 20.7462 17.4928 20.2486C17.8499 19.751 18.0825 19.175 18.1711 18.569C18.2597 17.963 18.2017 17.3446 18.002 16.7656L16.624 19.2458C16.1032 20.1829 15.0532 20.6958 13.9939 20.5304C12.9346 20.365 12.0909 19.5565 11.8806 18.5052L11.3071 15.6382C10.4071 16.8004 10.2473 18.3737 10.8954 19.6931C11.5434 21.0126 12.8861 21.8479 14.3561 21.8461Z" fill="#282828"></path>
</g>
<defs>
<clipPath id="clip0_104_7218">
<rect width="24" height="24" fill="white"></rect>
</clipPath>
</defs>
</svg>
