<svg width="28" height="28" viewBox="0 0 28 28" fill="none" xmlns="http://www.w3.org/2000/svg">
<g clip-path="url(#clip0_447_14163)">
<g clip-path="url(#clip1_447_14163)">
<path d="M9.01818 24.5C8.6969 24.4972 8.37948 24.4298 8.08485 24.3017C7.73282 24.1484 7.42407 23.9106 7.18596 23.6094C6.94785 23.3082 6.78775 22.9529 6.71985 22.575L6.32318 20.2417C5.60823 19.8765 4.96423 19.3866 4.42151 18.795C3.06577 17.0254 2.33105 14.8584 2.33105 12.6292C2.33105 10.4 3.06577 8.23289 4.42151 6.46333C6.08985 4.66667 9.67151 3.5 13.9998 3.5C18.3282 3.5 21.9098 4.66667 23.5782 6.51C25.9932 9.25167 26.3665 14.2567 24.4182 17.6517C24.1813 18.0699 23.8997 18.4611 23.5782 18.8183C22.9217 19.5211 22.1274 20.0811 21.2448 20.4633C20.9671 20.5684 20.6597 20.5636 20.3854 20.4499C20.111 20.3362 19.8904 20.1221 19.7684 19.8514C19.6464 19.5806 19.6323 19.2735 19.7288 18.9927C19.8254 18.7119 20.0255 18.4784 20.2882 18.34C20.8705 18.0932 21.395 17.7276 21.8282 17.2667C22.0386 17.0267 22.2225 16.7646 22.3765 16.485C23.0835 15.1644 23.4068 13.6723 23.3099 12.1776C23.213 10.6828 22.6997 9.24494 21.8282 8.02667C20.6615 6.72 17.4998 5.83333 13.9998 5.83333C10.4998 5.83333 7.33818 6.72 6.17151 8.05C5.18852 9.39203 4.65859 11.0123 4.65859 12.6758C4.65859 14.3394 5.18852 15.9596 6.17151 17.3017C6.52734 17.6719 6.94606 17.9761 7.40818 18.2C7.73117 18.3686 8.0102 18.6104 8.22293 18.9062C8.43565 19.202 8.57615 19.5435 8.63318 19.9033L9.02985 22.2367L12.2148 20.1367L12.3665 20.055C12.5059 19.9511 12.6645 19.8757 12.8332 19.8333C13.0934 19.832 13.3465 19.9177 13.5524 20.0768C13.7583 20.2359 13.9051 20.4593 13.9695 20.7114C14.0338 20.9635 14.0121 21.2299 13.9077 21.4682C13.8032 21.7065 13.6222 21.9031 13.3932 22.0267L10.3132 24.115C9.92892 24.3682 9.47837 24.5022 9.01818 24.5Z" fill="#282828"></path>
<path d="M18.1068 23.5086C17.6294 23.5102 17.1595 23.3897 16.7418 23.1586C16.2306 22.8905 15.8108 22.4763 15.536 21.9687C15.2613 21.4611 15.1439 20.8831 15.199 20.3086C15.2541 19.734 15.4791 19.1889 15.8453 18.7427C16.2115 18.2965 16.7023 17.9696 17.2551 17.8036L18.4218 17.4536C19.1612 17.2344 19.9572 17.3146 20.6382 17.6769C21.3191 18.0391 21.8303 18.6545 22.0618 19.3902C22.2873 20.1297 22.21 20.9285 21.8469 21.6111C21.4837 22.2936 20.8644 22.8041 20.1251 23.0302L18.9584 23.3802C18.6819 23.4627 18.3953 23.5059 18.1068 23.5086ZM19.2268 19.6586C19.1689 19.6475 19.1096 19.6475 19.0518 19.6586L17.9434 19.9969C17.8689 20.0169 17.7994 20.0522 17.7392 20.1003C17.679 20.1485 17.6293 20.2086 17.5934 20.2769C17.5639 20.3471 17.5487 20.4224 17.5487 20.4986C17.5487 20.5747 17.5639 20.65 17.5934 20.7202C17.6455 20.8681 17.749 20.9923 17.8851 21.0702C17.9551 21.1004 18.0305 21.116 18.1068 21.116C18.183 21.116 18.2584 21.1004 18.3284 21.0702L19.4951 20.7319C19.5672 20.7098 19.6342 20.6737 19.6922 20.6257C19.7503 20.5776 19.7983 20.5186 19.8334 20.4519C19.8629 20.3817 19.8782 20.3064 19.8782 20.2302C19.8782 20.1541 19.8629 20.0787 19.8334 20.0086C19.7813 19.8607 19.6778 19.7364 19.5418 19.6586C19.4385 19.6319 19.3301 19.6319 19.2268 19.6586ZM14.0001 17.5002C13.1034 17.5501 12.2218 17.2534 11.5377 16.6714C10.8537 16.0894 10.4195 15.2667 10.3251 14.3736C10.3144 14.2586 10.3264 14.1428 10.3604 14.0325C10.3945 13.9222 10.45 13.8198 10.5236 13.7309C10.5973 13.6421 10.6877 13.5686 10.7898 13.5147C10.8918 13.4609 11.0035 13.4276 11.1184 13.4169C11.2333 13.4062 11.3492 13.4182 11.4595 13.4522C11.5698 13.4863 11.6722 13.5418 11.7611 13.6154C11.8499 13.6891 11.9234 13.7795 11.9772 13.8816C12.0311 13.9836 12.0644 14.0953 12.0751 14.2102C12.1336 14.6664 12.3671 15.0821 12.7262 15.3694C13.0854 15.6568 13.5422 15.7933 14.0001 15.7502C14.458 15.7933 14.9148 15.6568 15.274 15.3694C15.6331 15.0821 15.8666 14.6664 15.9251 14.2102C15.9358 14.0953 15.9691 13.9836 16.0229 13.8816C16.0768 13.7795 16.1503 13.6891 16.2391 13.6154C16.328 13.5418 16.4304 13.4863 16.5407 13.4522C16.651 13.4182 16.7669 13.4062 16.8818 13.4169C16.9967 13.4276 17.1083 13.4609 17.2104 13.5147C17.3124 13.5686 17.4029 13.6421 17.4766 13.7309C17.5502 13.8198 17.6057 13.9222 17.6397 14.0325C17.6738 14.1428 17.6858 14.2586 17.6751 14.3736C17.5807 15.2667 17.1465 16.0894 16.4625 16.6714C15.7784 17.2534 14.8968 17.5501 14.0001 17.5002Z" fill="#282828"></path>
<path d="M11.6663 11.3747C12.4718 11.3747 13.1247 10.7218 13.1247 9.91634C13.1247 9.11093 12.4718 8.45801 11.6663 8.45801C10.8609 8.45801 10.208 9.11093 10.208 9.91634C10.208 10.7218 10.8609 11.3747 11.6663 11.3747Z" fill="#282828"></path>
<path d="M16.3333 11.3747C17.1387 11.3747 17.7917 10.7218 17.7917 9.91634C17.7917 9.11093 17.1387 8.45801 16.3333 8.45801C15.5279 8.45801 14.875 9.11093 14.875 9.91634C14.875 10.7218 15.5279 11.3747 16.3333 11.3747Z" fill="#282828"></path>
</g>
</g>
<defs>
<clipPath id="clip0_447_14163">
<rect width="28" height="28" fill="white"></rect>
</clipPath>
<clipPath id="clip1_447_14163">
<rect width="28" height="28" fill="white"></rect>
</clipPath>
</defs>
</svg>
