<svg width="24" height="24" viewBox="0 0 24 24" fill="none" xmlns="http://www.w3.org/2000/svg">
<g clip-path="url(#clip0_104_7163)">
<path d="M9.67983 11.3371L11.6685 13.3258L14.3202 10.6741M21.1638 14.1968C20.9335 15.1606 20.5517 16.0817 20.0327 16.9258L21.1482 18.4965L18.4966 21.1481L16.9259 20.0326C16.0818 20.5516 15.1606 20.9334 14.1969 21.1637L13.875 23.0625H10.125L9.8032 21.1638C8.83944 20.9335 7.91833 20.5517 7.07423 20.0327L5.5035 21.1482L2.85188 18.4966L3.96736 16.9259C3.44836 16.0818 3.0666 15.1606 2.83631 14.1969L0.9375 13.875V10.125L2.83622 9.8032C3.06649 8.83944 3.44825 7.91833 3.96727 7.07423L2.85178 5.5035L5.50341 2.85188L7.07414 3.96736C7.91824 3.44836 8.83935 3.0666 9.80311 2.83631L10.125 0.9375H13.875L14.1968 2.83622C15.1606 3.06649 16.0817 3.44825 16.9258 3.96727L18.4965 2.85178L21.1481 5.50341L20.0326 7.07414C20.5516 7.91824 20.9334 8.83935 21.1637 9.80311L23.0625 10.125V13.875L21.1638 14.1968ZM12 6.32812C8.86753 6.32812 6.32812 8.86753 6.32812 12C6.32812 15.1325 8.86753 17.6719 12 17.6719C15.1325 17.6719 17.6719 15.1325 17.6719 12C17.6719 8.86753 15.1325 6.32812 12 6.32812Z" stroke="#282828" stroke-width="1.875" stroke-miterlimit="10"></path>
</g>
<defs>
<clipPath id="clip0_104_7163">
<rect width="24" height="24" fill="white"></rect>
</clipPath>
</defs>
</svg>
