<svg xmlns="http://www.w3.org/2000/svg" xmlns:xlink="http://www.w3.org/1999/xlink" width="512" height="512" x="0" y="0" viewBox="0 0 48 48" style="enable-background:new 0 0 512 512" xml:space="preserve" class=""><g><path d="M29.07 38H18.89a16.55 16.55 0 0 1 .11 1.72V40h10v-.64c0-.45 0-.91.07-1.36zM25.84 25h-3.68l1.7 11h.28z" fill="#000000" data-sanitized-data-original="#000000" data-original="#000000" class=""></path><path d="M18.52 36h3.31l-1.69-11H19a1 1 0 0 1 0-2h10a1 1 0 0 1 0 2h-1.14l-1.69 11h3.27a12.32 12.32 0 0 1 3.12-5.6A12 12 0 0 0 23.5 10 12.1 12.1 0 0 0 12 21.78a12 12 0 0 0 3.39 8.57A12.69 12.69 0 0 1 18.52 36zM19.14 42A4 4 0 0 0 23 45h2a4 4 0 0 0 3.86-3zM24 8a1 1 0 0 1-1-1V3a1 1 0 0 1 2 0v4a1 1 0 0 1-1 1zM36 13a1 1 0 0 1-.71-.29 1 1 0 0 1 0-1.42l4-4a1 1 0 1 1 1.42 1.42l-4 4A1 1 0 0 1 36 13zM12 13a1 1 0 0 1-.71-.29l-4-4a1 1 0 1 1 1.42-1.42l4 4a1 1 0 0 1 0 1.42A1 1 0 0 1 12 13zM43 25h-4a1 1 0 0 1 0-2h4a1 1 0 0 1 0 2zM9 25H5a1 1 0 0 1 0-2h4a1 1 0 0 1 0 2z" fill="#000000" data-sanitized-data-original="#000000" data-original="#000000" class=""></path></g></svg>